<svg xmlns="http://www.w3.org/2000/svg" style="isolation:isolate" viewBox="0 0 800 800" width="800" height="800"><defs><clipPath id="a"><path d="M0 0h800v800H0z"/></clipPath></defs><g clip-path="url(#a)"><path d="M244.922 667.968l123.348 72.029c16.63 9.711 43.703 9.832 60.419.271l124.79-71.381 124.79-71.38c16.716-9.562 30.358-32.959 30.444-52.217l.643-143.904.644-143.904c.086-19.258-13.346-42.776-29.976-52.487l-124.147-72.496L431.73 60.003c-16.63-9.711-43.703-9.833-60.419-.271l-124.79 71.381-124.79 71.38c-16.716 9.562-30.358 32.959-30.444 52.217l-.643 143.904L90 542.518c-.086 19.257 13.346 42.776 29.976 52.487l47.407 27.684V447.437h.383l.217-48.477.513-114.712c.048-10.699 7.626-23.697 16.913-29.01l99.482-56.904 99.482-56.904c9.286-5.312 24.327-5.244 33.566.151l98.969 57.793 98.969 57.793c9.239 5.395 16.701 18.461 16.653 29.16l-.513 114.713-.513 114.712c-.048 10.699-7.626 23.697-16.913 29.009l-99.482 56.904-99.482 56.904c-9.286 5.313-24.327 5.245-33.566-.15l-98.969-57.793-38.17-22.289v89.631z" fill="#007ACC"/><path d="M399.327 224.967c4.145-.224 8.433.589 11.598 2.433l67.05 39.071 67.05 39.072c5.59 3.257 10.103 11.156 10.072 17.627l-.384 77.603-.383 77.603c-.016 3.341-1.247 7.053-3.208 10.304l-36.888-21.496-109.07-63.557c-3.698-2.155-6.682-7.379-6.661-11.658l.623-126.237.201-40.765z" fill="#009688"/><path d="M321.719 266.681l-65.986 37.705c-5.619 3.21-10.206 11.07-10.238 17.541l-.383 77.603-.383 77.603c-.032 6.471 4.481 14.369 10.072 17.627l67.05 39.071 67.05 39.072c5.591 3.258 14.691 3.296 20.309.086l67.082-38.33-1.089-.635-144.31-84.093c-5.547-3.232-10.024-11.067-9.992-17.486l.818-165.764z" fill="#B51010"/></g></svg>